<svg width="1283" height="620" viewBox="0 0 1283 620" fill="none" xmlns="http://www.w3.org/2000/svg">
<path d="M0.232938 233.986C1.32627 203.119 7.54627 173.466 18.8929 145.026C48.1029 71.7759 114.213 20.7259 190.743 5.08588C263.533 -9.80412 339.063 8.25588 396.453 55.9159C463.133 111.286 487.133 199.926 475.623 283.426C474.356 292.639 471.74 302.123 467.773 311.876C459.906 331.216 450.17 350.203 438.563 368.836C408.653 416.856 374.343 462.266 338.413 505.916C309.253 541.336 277.95 577.293 244.503 613.786C242.256 616.233 240.583 618.023 239.483 619.156C239.216 619.429 238.953 619.426 238.693 619.146C188.226 564.746 140.443 508.083 95.3429 449.156C64.1229 408.376 33.0929 364.296 12.5329 317.446C1.23294 291.726 -0.787062 262.816 0.232938 233.986ZM389.853 212.516C389.853 192.732 385.956 173.142 378.385 154.865C370.815 136.587 359.718 119.979 345.729 105.99C331.739 92.0011 315.132 80.9043 296.854 73.3334C278.576 65.7626 258.987 61.8659 239.203 61.8659C199.248 61.8659 160.93 77.7379 132.677 105.99C104.425 134.243 88.5529 172.561 88.5529 212.516C88.5529 252.471 104.425 290.789 132.677 319.042C160.93 347.294 199.248 363.166 239.203 363.166C258.987 363.166 278.576 359.269 296.854 351.698C315.132 344.127 331.739 333.031 345.729 319.042C359.718 305.052 370.815 288.445 378.385 270.167C385.956 251.889 389.853 232.3 389.853 212.516Z" fill="#DCB038"/>
<path d="M218.576 253.561L224.354 254.026C224.425 254.031 224.49 254.062 224.539 254.113C224.587 254.164 224.613 254.231 224.613 254.3L224.419 272.472C224.419 272.545 224.39 272.614 224.338 272.666C224.286 272.717 224.215 272.746 224.142 272.746H189C188.964 272.746 188.928 272.739 188.894 272.725C188.86 272.711 188.83 272.691 188.804 272.666C188.778 272.64 188.758 272.61 188.744 272.577C188.73 272.544 188.723 272.508 188.723 272.472L188.741 254.319C188.741 254.249 188.768 254.182 188.816 254.131C188.864 254.08 188.93 254.049 189 254.045L195.943 253.588C195.998 253.586 196.05 253.569 196.095 253.538C196.139 253.508 196.173 253.464 196.193 253.415L214.203 204.507C214.217 204.468 214.222 204.426 214.218 204.385C214.213 204.343 214.199 204.304 214.177 204.268C214.155 204.233 214.125 204.204 214.089 204.182C214.054 204.16 214.014 204.146 213.972 204.141L206.779 203.374C206.71 203.367 206.647 203.336 206.601 203.285C206.554 203.234 206.529 203.168 206.529 203.1V187.239C206.529 187.203 206.537 187.167 206.55 187.134C206.564 187.101 206.585 187.071 206.611 187.045C206.636 187.02 206.667 187 206.701 186.986C206.734 186.972 206.77 186.965 206.807 186.965L249.344 186.746C249.401 186.746 249.457 186.764 249.503 186.797C249.549 186.83 249.584 186.876 249.603 186.929L273.789 253.396C273.808 253.445 273.841 253.487 273.884 253.518C273.926 253.548 273.977 253.567 274.029 253.57L280.464 254.026C280.534 254.031 280.6 254.062 280.648 254.113C280.696 254.164 280.723 254.231 280.723 254.3V272.472C280.723 272.508 280.716 272.544 280.702 272.577C280.688 272.61 280.667 272.64 280.642 272.666C280.616 272.691 280.585 272.711 280.552 272.725C280.518 272.739 280.482 272.746 280.446 272.746H245.406C245.369 272.746 245.333 272.739 245.3 272.725C245.266 272.711 245.235 272.691 245.21 272.666C245.184 272.64 245.164 272.61 245.15 272.577C245.136 272.544 245.128 272.508 245.128 272.472V254.246C245.128 254.176 245.155 254.109 245.203 254.058C245.251 254.007 245.317 253.976 245.387 253.972L251.008 253.533C251.05 253.53 251.09 253.517 251.126 253.496C251.162 253.475 251.192 253.447 251.215 253.412C251.238 253.378 251.253 253.339 251.259 253.299C251.265 253.258 251.262 253.216 251.249 253.177L249.668 248.274C249.65 248.217 249.614 248.168 249.566 248.134C249.518 248.099 249.459 248.081 249.4 248.082L220.286 248.109C220.229 248.11 220.174 248.128 220.128 248.16C220.081 248.193 220.046 248.239 220.027 248.292L218.336 253.205C218.323 253.244 218.319 253.285 218.325 253.326C218.331 253.367 218.346 253.406 218.369 253.44C218.392 253.474 218.423 253.503 218.459 253.524C218.494 253.544 218.535 253.557 218.576 253.561ZM227.183 229.189C227.167 229.23 227.161 229.275 227.166 229.32C227.171 229.364 227.187 229.407 227.212 229.444C227.238 229.481 227.272 229.511 227.312 229.532C227.352 229.553 227.397 229.563 227.442 229.563L242.327 229.636C242.372 229.637 242.417 229.628 242.457 229.608C242.497 229.588 242.532 229.559 242.558 229.523C242.585 229.487 242.602 229.446 242.608 229.402C242.615 229.358 242.61 229.313 242.595 229.271L235.255 208.917C235.234 208.865 235.199 208.821 235.153 208.79C235.106 208.758 235.052 208.741 234.996 208.741C234.94 208.741 234.885 208.758 234.839 208.79C234.792 208.821 234.757 208.865 234.737 208.917L227.183 229.189Z" fill="#651012"/>
<path d="M331.049 220.343L338.372 206.291C338.525 205.993 338.436 205.816 338.105 205.762L336.433 205.497C336.072 205.436 335.891 205.223 335.891 204.858V188.005C335.891 187.166 336.311 186.749 337.15 186.755L371.328 186.874C371.591 186.88 371.723 187.011 371.723 187.266V204.722C371.722 204.839 371.68 204.952 371.605 205.041C371.529 205.129 371.424 205.188 371.309 205.205L360.541 206.674C360.198 206.717 359.941 206.887 359.77 207.185C353.418 218.263 347.134 229.367 340.917 240.499C339.254 243.474 340.035 249.524 340.025 252.936C340.019 253.295 340.197 253.493 340.558 253.529L347.991 254.287C348.346 254.323 348.524 254.521 348.524 254.88V272.29C348.524 272.594 348.371 272.746 348.065 272.746H313.151C312.845 272.746 312.692 272.594 312.692 272.29V255.263C312.692 254.868 312.888 254.643 313.28 254.588L320.465 253.648C320.796 253.605 320.961 253.42 320.961 253.091V241.74C320.961 241.418 320.878 241.12 320.713 240.846L300.28 207.24C300.016 206.802 299.63 206.553 299.122 206.492L290.247 205.424C289.897 205.382 289.723 205.184 289.723 204.831V187.23C289.723 187.101 289.774 186.978 289.866 186.888C289.957 186.797 290.081 186.746 290.21 186.746H324.866C324.988 186.746 325.104 186.794 325.191 186.88C325.277 186.965 325.325 187.081 325.325 187.202V204.585C325.325 204.925 325.157 205.12 324.82 205.169L323.065 205.451C322.599 205.524 322.48 205.765 322.707 206.172L330.525 220.352C330.703 220.674 330.878 220.671 331.049 220.343Z" fill="#651012"/>
<path d="M149.697 205.96L144.142 205.43C143.792 205.399 143.616 205.208 143.616 204.855L143.589 187.184C143.589 186.892 143.734 186.746 144.024 186.746H178.27C178.572 186.746 178.723 186.898 178.723 187.203V204.489C178.722 204.663 178.659 204.831 178.546 204.96C178.432 205.09 178.276 205.172 178.107 205.192L170.132 206.078C170.007 206.092 169.892 206.151 169.808 206.243C169.724 206.336 169.678 206.456 169.679 206.58C169.643 215.268 169.64 223.946 169.67 232.616C169.7 241.717 169.344 247.778 168.601 250.797C165.429 263.683 154.536 271.901 141.487 272.668C120.336 273.91 106.851 260.139 107.767 238.296C107.797 237.565 108.172 237.2 108.89 237.2H125.692C125.976 237.2 126.121 237.343 126.127 237.629C126.335 246.935 127.558 254.541 139.076 254.131C149.724 253.747 151.065 247.519 151.084 237.93C151.096 227.989 151.087 217.834 151.056 207.466C151.054 207.088 150.913 206.724 150.662 206.445C150.411 206.167 150.067 205.994 149.697 205.96Z" fill="#651012"/>
<path d="M691.111 133.194C681.504 125.514 672.878 116.86 665.231 107.234C664.611 106.46 664.054 105.57 663.561 104.564C663.388 104.217 663.431 103.9 663.691 103.614L680.481 85.3236C680.768 85.0103 681.048 85.0169 681.321 85.3436C684.168 88.8569 686.974 92.3269 689.741 95.7536C708.841 119.364 736.181 134.474 766.861 134.714C767.308 134.714 767.368 134.864 767.041 135.164C758.661 142.77 751.154 151.167 744.521 160.354C744.274 160.694 743.941 160.864 743.521 160.864L623.741 160.634C623.374 160.634 623.178 160.45 623.151 160.084C622.041 143.484 620.381 127.114 619.121 110.374C618.321 99.6069 617.358 88.8503 616.231 78.1036C615.321 69.4036 615.281 58.5536 613.931 48.7936C613.681 47.0136 613.701 45.2636 614.951 43.7036C618.338 39.4703 621.781 35.2969 625.281 31.1836C625.494 30.9303 625.768 30.8036 626.101 30.8036L631.921 30.7936C632.361 30.7869 632.628 30.9969 632.721 31.4236C632.921 32.3436 633.071 33.5503 633.171 35.0436C634.511 54.9136 636.821 75.6636 638.161 96.0436C638.621 103.117 639.841 115.524 641.821 133.264C641.861 133.617 642.058 133.794 642.411 133.794L690.911 133.784C691.538 133.784 691.604 133.587 691.111 133.194Z" fill="#651012"/>
<path d="M953.131 96.4436C956.851 96.8036 961.681 96.3136 964.281 96.3136C998.828 96.287 1033.37 96.2803 1067.92 96.2936C1077.44 96.2936 1088.28 97.5536 1092.92 107.084C1096.29 113.997 1098.6 122.287 1099.87 131.954C1099.91 132.3 1099.82 132.604 1099.6 132.864L1076.73 159.724C1076.52 159.974 1076.26 160.175 1075.96 160.313C1075.67 160.452 1075.35 160.523 1075.02 160.524C1006.19 160.584 937.204 160.567 868.071 160.474C863.851 160.474 855.631 160.874 850.351 160.164C843.361 159.234 836.741 149.284 834.131 143.464C830.651 135.694 830.441 122.364 834.501 114.754C836.761 110.52 839.728 106.777 843.401 103.524C849.211 98.3736 854.411 98.4536 861.431 98.8336C861.871 98.8603 862.054 98.6536 861.981 98.2136L861.431 94.8636C861.358 94.4303 861.478 94.0603 861.791 93.7536L879.271 76.6836C879.342 76.6148 879.432 76.5677 879.529 76.5481C879.626 76.5284 879.727 76.537 879.82 76.5727C879.912 76.6085 879.992 76.6699 880.051 76.7498C880.11 76.8297 880.145 76.9247 880.151 77.0236C881.204 95.8036 882.771 114.544 884.851 133.244C884.868 133.396 884.941 133.536 885.056 133.637C885.17 133.739 885.318 133.795 885.471 133.794H1073.81C1074.8 133.794 1075.2 133.304 1075.01 132.324C1073.85 126.554 1069.13 123.024 1063.19 123.024C1010.32 123.057 957.471 123.06 904.631 123.034C904.184 123.034 904.048 122.824 904.221 122.404C910.711 106.594 918.561 94.2136 933.321 85.5236C941.761 80.5536 946.631 75.7436 951.191 67.0936C956.004 57.967 959.601 48.2636 961.981 37.9836C962.314 36.5236 962.848 36.447 963.581 37.7536C967.371 44.5136 967.841 55.7236 967.261 63.3336C966.351 75.1836 960.051 86.4836 952.881 95.8836C952.843 95.9336 952.82 95.9928 952.812 96.055C952.805 96.1173 952.815 96.1803 952.841 96.2375C952.866 96.2947 952.907 96.344 952.958 96.3803C953.009 96.4165 953.069 96.4384 953.131 96.4436ZM855.297 137.145C856.963 137.748 858.836 137.566 860.504 136.638C862.172 135.71 863.499 134.113 864.192 132.197C864.885 130.282 864.889 128.206 864.201 126.425C863.513 124.644 862.191 123.305 860.525 122.702C858.859 122.099 856.986 122.282 855.318 123.21C853.65 124.137 852.323 125.735 851.63 127.65C850.937 129.565 850.934 131.641 851.621 133.422C852.309 135.203 853.631 136.542 855.297 137.145Z" fill="#651012"/>
<path d="M1192.29 50.7894C1192.33 57.4775 1197.12 62.8743 1203 62.8435C1208.89 62.8127 1213.63 57.366 1213.59 50.6779C1213.56 43.9898 1208.76 38.593 1202.88 38.6238C1197 38.6546 1192.26 44.1013 1192.29 50.7894Z" fill="#651012"/>
<path d="M863.901 58.8092C863.936 65.4973 868.715 70.8942 874.575 70.8635C880.434 70.8328 885.156 65.3862 885.121 58.6981C885.086 52.01 880.307 46.6131 874.448 46.6438C868.588 46.6745 863.866 52.1211 863.901 58.8092Z" fill="#651012"/>
<path d="M839.051 58.7654C839.039 65.4591 843.718 70.8935 849.5 70.9036C855.282 70.9137 859.979 65.4956 859.991 58.8019C860.003 52.1082 855.325 46.6738 849.542 46.6637C843.76 46.6536 839.063 52.0717 839.051 58.7654Z" fill="#651012"/>
<path d="M1207.32 73.6905C1207.34 80.4007 1212.1 85.8239 1217.93 85.8035C1223.77 85.7832 1228.48 80.3269 1228.46 73.6167C1228.44 66.9065 1223.69 61.4833 1217.85 61.5037C1212.01 61.5241 1207.3 66.9803 1207.32 73.6905Z" fill="#651012"/>
<path d="M1182 75.7814C1182.1 82.4799 1186.91 87.8441 1192.75 87.7625C1198.59 87.6809 1203.25 82.1845 1203.16 75.4859C1203.07 68.7874 1198.25 63.4233 1192.41 63.5048C1186.57 63.5864 1181.91 69.0828 1182 75.7814Z" fill="#651012"/>
<path d="M1217.29 133.434L1205.48 112.304C1205.19 111.777 1205.27 111.314 1205.73 110.914L1223.61 95.3236C1223.67 95.274 1223.74 95.2378 1223.81 95.2178C1223.88 95.1977 1223.96 95.1943 1224.03 95.2077C1224.11 95.2211 1224.18 95.2511 1224.24 95.2953C1224.3 95.3396 1224.35 95.3971 1224.39 95.4636L1244.91 133.314C1245.08 133.634 1245.35 133.794 1245.71 133.794H1253.56C1254.07 133.794 1254.2 133.57 1253.95 133.124L1230.75 91.1136C1230.56 90.7736 1230.61 90.4803 1230.91 90.2336L1249.8 74.7036C1250.14 74.417 1250.42 74.467 1250.64 74.8536C1261.39 93.887 1272 112.944 1282.47 132.024C1283.23 133.41 1282.9 134.927 1281.47 136.574C1274.64 144.467 1267.78 152.344 1260.91 160.204C1260.71 160.43 1260.46 160.544 1260.15 160.544H1148.63C1148.24 160.544 1148.01 160.737 1147.96 161.124C1147.48 164.674 1147.38 168.484 1146.05 171.614C1140.74 184.114 1127.65 195.934 1112.85 194.434C1112.75 194.421 1112.65 194.38 1112.57 194.313C1112.49 194.246 1112.42 194.158 1112.39 194.058C1112.36 193.958 1112.36 193.851 1112.38 193.749C1112.41 193.647 1112.46 193.555 1112.54 193.484C1123.3 183.697 1129.03 171.96 1129.73 158.274C1129.88 155.194 1129.62 148.537 1128.94 138.304C1128.37 129.697 1127.3 121.14 1125.72 112.634C1125.65 112.254 1125.74 111.92 1126 111.634L1144.09 91.4136C1144.39 91.0803 1144.56 91.137 1144.61 91.5836L1148.64 133.124C1148.68 133.544 1148.91 133.757 1149.33 133.764C1157.48 133.83 1165.59 133.834 1173.65 133.774C1176.07 133.754 1177.37 133.694 1179.26 131.984C1185.54 126.297 1191.84 120.637 1198.16 115.004C1198.45 114.744 1198.7 114.784 1198.9 115.124L1209.12 132.954C1209.27 133.209 1209.48 133.421 1209.73 133.569C1209.99 133.716 1210.28 133.794 1210.57 133.794H1217.08C1217.12 133.794 1217.17 133.783 1217.2 133.762C1217.24 133.741 1217.27 133.711 1217.29 133.675C1217.31 133.638 1217.32 133.596 1217.32 133.554C1217.32 133.512 1217.31 133.47 1217.29 133.434Z" fill="#651012"/>
<path d="M543.961 99.5137C540.051 101.464 543.621 105.774 545.661 108.344C552.621 117.084 560.711 126.844 565.111 136.044C567.821 141.714 568.071 152.004 564.771 157.484C558.431 168.044 547.651 175.334 535.371 176.134C521.031 177.064 501.431 166.254 499.751 150.414C498.764 141.107 498.894 131.82 500.141 122.554C500.741 118.074 502.721 108.084 506.031 104.894C506.364 104.58 506.498 104.65 506.431 105.104C503.571 124.124 504.181 150.424 529.051 154.234C536.471 155.374 548.701 149.974 542.381 140.594C537.191 132.894 529.951 124.874 524.381 114.234C520.571 106.954 520.291 95.0237 524.641 87.9537C530.841 77.8537 545.141 71.8037 555.871 78.8637C559.881 81.5037 562.631 85.3737 565.721 89.3137C575.728 102.04 585.615 114.86 595.381 127.774C595.581 128.04 595.578 128.304 595.371 128.564L575.761 152.854C575.7 152.931 575.617 152.988 575.522 153.015C575.427 153.043 575.326 153.04 575.233 153.007C575.14 152.973 575.06 152.912 575.004 152.83C574.948 152.749 574.919 152.652 574.921 152.554C574.941 147.964 576.021 137.874 573.391 134.364C565.578 123.977 557.594 113.72 549.441 103.594C548.151 101.994 546.951 100.144 544.941 99.4437C544.608 99.3303 544.281 99.3537 543.961 99.5137Z" fill="#651012"/>
<path d="M692.742 188.145C692.8 194.877 697.513 200.293 703.268 200.243C709.022 200.193 713.639 194.695 713.581 187.963C713.522 181.231 708.809 175.814 703.055 175.864C697.3 175.914 692.683 181.412 692.742 188.145Z" fill="#651012"/>
<path d="M511.552 196.495C511.622 203.177 516.428 208.544 522.288 208.483C528.147 208.422 532.84 202.955 532.771 196.273C532.701 189.59 527.894 184.223 522.034 184.284C516.175 184.346 511.482 189.812 511.552 196.495Z" fill="#651012"/>
<path d="M536.572 196.455C536.63 203.176 541.37 208.584 547.157 208.533C552.945 208.483 557.589 202.993 557.531 196.272C557.472 189.551 552.733 184.144 546.945 184.194C541.157 184.245 536.513 189.734 536.572 196.455Z" fill="#651012"/>
<path d="M634.751 218.884C635.251 218.157 635.994 217.897 636.981 218.104C637.493 218.211 637.957 218.481 638.305 218.874C638.652 219.266 638.865 219.76 638.911 220.284C638.938 220.584 638.944 220.884 638.931 221.184C638.831 223.764 633.191 228.384 631.131 229.984C630.939 230.135 630.71 230.231 630.467 230.26C630.225 230.29 629.978 230.252 629.755 230.151C629.532 230.05 629.339 229.89 629.2 229.688C629.06 229.486 628.977 229.249 628.961 229.004L628.671 224.494C628.658 224.214 628.561 223.964 628.381 223.744C628.041 223.337 627.821 222.917 627.721 222.484C626.271 216.104 631.391 214.984 636.241 215.804C636.328 215.82 636.408 215.862 636.469 215.926C636.53 215.99 636.569 216.071 636.582 216.159C636.594 216.246 636.578 216.336 636.537 216.414C636.495 216.492 636.43 216.555 636.351 216.594C635.458 217.007 634.808 217.647 634.401 218.514C633.528 220.36 633.644 220.484 634.751 218.884Z" fill="#830018"/>
<path d="M650.951 254.254L649.161 237.744C649.121 237.37 649.238 237.06 649.511 236.814L658.181 228.744C658.409 228.529 658.693 228.384 659 228.324C659.307 228.264 659.625 228.291 659.918 228.404C660.211 228.517 660.467 228.709 660.657 228.96C660.846 229.211 660.962 229.51 660.991 229.824L665.071 277.074C665.104 277.44 664.991 277.76 664.731 278.034C660.564 282.387 655.961 286.204 650.921 289.484C650.608 289.69 650.264 289.794 649.891 289.794C644.031 289.794 640.071 291.224 636.631 285.334C632.981 279.084 630.841 272.944 635.191 266.584C640.101 259.394 645.261 267.064 648.231 270.674C648.484 270.98 648.451 271.25 648.131 271.484C643.881 274.594 649.581 280.054 652.491 276.334C652.815 275.922 652.986 275.411 652.975 274.888C652.964 274.364 652.772 273.861 652.431 273.464L630.511 247.944C630.285 247.677 630.171 247.37 630.171 247.024V233.264C630.172 233.039 630.236 232.819 630.354 232.628C630.473 232.438 630.643 232.284 630.844 232.184C631.046 232.085 631.271 232.043 631.495 232.064C631.719 232.085 631.932 232.168 632.111 232.304C633.318 233.23 634.338 234.23 635.171 235.304C640.198 241.73 645.271 248.127 650.391 254.494C650.838 255.054 651.025 254.974 650.951 254.254Z" fill="#830018"/>
<path d="M673.701 238.314L681.711 229.234C681.895 229.024 682.136 228.872 682.405 228.797C682.673 228.722 682.958 228.727 683.224 228.812C683.49 228.898 683.725 229.058 683.9 229.275C684.076 229.492 684.184 229.756 684.211 230.034L689.171 279.154C689.193 279.356 689.171 279.56 689.107 279.754C689.043 279.947 688.939 280.124 688.801 280.274L680.431 289.244C680.243 289.445 680.001 289.588 679.734 289.656C679.466 289.723 679.185 289.712 678.924 289.623C678.663 289.534 678.434 289.372 678.263 289.155C678.092 288.939 677.987 288.678 677.961 288.404L673.351 239.394C673.333 239.199 673.354 239.003 673.414 238.817C673.475 238.632 673.572 238.46 673.701 238.314Z" fill="#830018"/>
<path d="M1237.35 277.044L1236.22 265.604C1236.18 265.244 1236.3 264.94 1236.57 264.694C1238.61 262.844 1244.27 257.144 1246.79 257.104C1247.41 257.09 1247.75 257.394 1247.82 258.014L1249.73 277.094C1249.76 277.394 1249.93 277.544 1250.23 277.544H1266.15C1266.47 277.544 1266.62 277.387 1266.59 277.074L1263.13 239.774C1263.11 239.496 1263.14 239.217 1263.23 238.954C1263.32 238.69 1263.46 238.448 1263.65 238.244L1271.83 229.224C1272.01 229.023 1272.25 228.88 1272.51 228.81C1272.77 228.741 1273.05 228.748 1273.3 228.832C1273.56 228.915 1273.79 229.071 1273.96 229.281C1274.13 229.491 1274.23 229.745 1274.26 230.014C1275.64 242.734 1276.87 255.74 1277.94 269.034C1278.1 270.994 1278.05 273.82 1277.79 277.514C1277.77 277.867 1277.64 278.174 1277.4 278.434L1267.32 289.404C1267.08 289.664 1266.79 289.794 1266.44 289.794H1223.61C1223.16 289.794 1222.92 290.017 1222.87 290.464C1221.89 300.444 1213.37 304.554 1204.08 303.704C1203.89 303.689 1203.71 303.615 1203.57 303.492C1203.43 303.37 1203.33 303.205 1203.28 303.021C1203.24 302.837 1203.26 302.645 1203.33 302.471C1203.4 302.297 1203.53 302.151 1203.69 302.054C1207.96 299.454 1210.53 295.707 1211.4 290.814C1211.43 290.661 1211.42 290.504 1211.38 290.355C1211.34 290.206 1211.27 290.067 1211.17 289.949C1211.07 289.83 1210.94 289.736 1210.8 289.671C1210.66 289.606 1210.51 289.573 1210.35 289.574C1205.25 289.624 1198.85 288.514 1195.83 283.974C1192.92 279.6 1192.69 274.93 1195.13 269.964C1197.84 264.454 1204.23 263.854 1210.06 264.084C1210.41 264.104 1210.71 263.994 1210.96 263.754L1218.32 257.004C1218.53 256.813 1218.79 256.684 1219.06 256.631C1219.34 256.578 1219.63 256.603 1219.89 256.704C1220.15 256.805 1220.38 256.977 1220.56 257.201C1220.73 257.425 1220.83 257.693 1220.86 257.974L1222.75 277.284C1222.79 277.657 1223 277.84 1223.37 277.834L1236.93 277.524C1237.24 277.517 1237.38 277.357 1237.35 277.044ZM1206.9 279.775C1207.43 279.907 1208.01 279.763 1208.51 279.373C1209 278.983 1209.38 278.379 1209.55 277.694C1209.63 277.356 1209.67 277.007 1209.64 276.669C1209.62 276.33 1209.54 276.009 1209.42 275.723C1209.29 275.437 1209.12 275.191 1208.9 275.001C1208.69 274.81 1208.45 274.678 1208.18 274.613C1207.65 274.48 1207.07 274.624 1206.58 275.015C1206.08 275.405 1205.7 276.008 1205.53 276.693C1205.45 277.032 1205.42 277.38 1205.44 277.719C1205.46 278.057 1205.54 278.378 1205.67 278.665C1205.79 278.951 1205.97 279.196 1206.18 279.387C1206.39 279.577 1206.63 279.709 1206.9 279.775Z" fill="#830018"/>
<path d="M880.731 260.554C899.711 260.6 918.691 260.557 937.671 260.424C950.131 260.344 954.221 264.364 955.961 276.474C955.986 276.635 955.973 276.802 955.923 276.959C955.872 277.117 955.786 277.262 955.671 277.384L944.031 289.394C943.778 289.66 943.468 289.794 943.101 289.794H798.891C798.73 289.794 798.574 289.734 798.455 289.624C798.337 289.515 798.264 289.365 798.251 289.204L793.381 239.284C793.315 238.624 793.518 238.06 793.991 237.594L802.241 229.364C802.442 229.164 802.695 229.025 802.972 228.963C803.248 228.901 803.536 228.919 803.803 229.014C804.07 229.11 804.304 229.278 804.479 229.501C804.654 229.724 804.762 229.992 804.791 230.274L809.481 277.094C809.508 277.394 809.671 277.544 809.971 277.544H827.921C828.255 277.544 828.405 277.377 828.371 277.044L827.131 265.394C827.085 264.994 827.215 264.667 827.521 264.414L836.551 256.894C836.74 256.738 836.968 256.636 837.211 256.599C837.453 256.562 837.701 256.591 837.927 256.684C838.153 256.776 838.349 256.928 838.495 257.124C838.64 257.319 838.729 257.551 838.751 257.794L840.691 277.074C840.725 277.387 840.898 277.544 841.211 277.544H940.911C941.218 277.544 941.331 277.397 941.251 277.104C940.445 274.224 938.668 272.787 935.921 272.794C908.515 272.807 881.105 272.804 853.691 272.784C853.311 272.784 853.191 272.607 853.331 272.254C856.051 265.344 860.421 260.454 866.831 256.874C869.451 255.414 872.241 254.164 874.201 251.874C878.495 246.867 881.368 241.234 882.821 234.974C882.89 234.667 883.054 234.39 883.289 234.182C883.525 233.974 883.82 233.846 884.133 233.816C884.446 233.786 884.76 233.855 885.031 234.015C885.302 234.174 885.516 234.415 885.641 234.704C890.071 244.734 886.811 252.144 880.471 260.024C880.191 260.377 880.278 260.554 880.731 260.554Z" fill="#830018"/>
<path d="M506.541 249.963C510.053 250 512.928 247.456 512.961 244.28C512.994 241.105 510.174 238.501 506.661 238.464C503.149 238.427 500.275 240.972 500.242 244.147C500.208 247.322 503.029 249.927 506.541 249.963Z" fill="#830018"/>
<path d="M519.591 249.973C523.087 249.924 525.885 247.311 525.84 244.135C525.796 240.96 522.926 238.425 519.431 238.474C515.935 238.523 513.137 241.137 513.182 244.312C513.226 247.487 516.096 250.022 519.591 249.973Z" fill="#830018"/>
<path d="M1238.5 250.024C1237.19 252.977 1234.74 254.22 1231.16 253.754C1223.95 252.804 1224.64 243.194 1231.85 242.514C1234.84 242.234 1237.08 243.634 1238.57 246.714C1238.59 246.75 1238.62 246.78 1238.65 246.802C1238.68 246.823 1238.72 246.834 1238.76 246.834C1238.8 246.834 1238.84 246.823 1238.87 246.802C1238.91 246.78 1238.93 246.75 1238.95 246.714C1242.56 239.324 1253.99 242.514 1251.14 250.284C1249.05 255.964 1241.66 254.484 1238.93 249.994C1238.77 249.734 1238.63 249.744 1238.5 250.024Z" fill="#830018"/>
<path d="M1144.58 277.114C1139.5 273.534 1134.92 269.387 1130.84 264.674C1130.59 264.387 1130.61 264.114 1130.88 263.854L1139.32 255.804C1139.64 255.5 1140.07 255.334 1140.51 255.341C1140.95 255.349 1141.37 255.529 1141.68 255.844C1144.84 259.054 1148.16 262.714 1151.43 265.324C1161.31 273.184 1172.71 277.33 1185.64 277.764C1186.11 277.777 1186.16 277.93 1185.79 278.224C1181.66 281.517 1177.93 285.227 1174.61 289.354C1174.37 289.654 1174.06 289.804 1173.67 289.804C1141.4 289.784 1109.16 289.784 1076.95 289.804C1059.58 289.814 1059.34 261.224 1079.1 261.634C1079.48 261.647 1079.67 261.464 1079.67 261.084V260.094C1079.67 259.654 1079.84 259.294 1080.18 259.014L1089.15 251.674C1089.31 251.548 1089.49 251.466 1089.69 251.438C1089.89 251.409 1090.09 251.435 1090.27 251.512C1090.45 251.589 1090.61 251.714 1090.73 251.875C1090.85 252.036 1090.92 252.225 1090.94 252.424L1093.26 277.204C1093.27 277.312 1093.32 277.413 1093.4 277.486C1093.49 277.558 1093.59 277.597 1093.7 277.594L1108.93 277.514C1109.24 277.514 1109.38 277.357 1109.35 277.044L1108.12 265.454C1108.08 265.06 1108.21 264.737 1108.51 264.484L1117.36 257.024C1117.57 256.847 1117.82 256.73 1118.09 256.687C1118.36 256.644 1118.64 256.675 1118.89 256.779C1119.14 256.882 1119.36 257.052 1119.53 257.272C1119.69 257.492 1119.79 257.752 1119.81 258.024L1121.68 277.064C1121.71 277.37 1121.88 277.527 1122.19 277.534L1144.43 277.574C1144.97 277.574 1145.02 277.42 1144.58 277.114ZM1077.82 278.872C1078.44 279.053 1079.12 278.921 1079.72 278.506C1080.32 278.09 1080.78 277.424 1081 276.656C1081.23 275.887 1081.2 275.078 1080.92 274.406C1080.64 273.735 1080.14 273.256 1079.52 273.075C1078.9 272.894 1078.22 273.026 1077.62 273.442C1077.03 273.858 1076.56 274.523 1076.34 275.292C1076.11 276.06 1076.14 276.87 1076.42 277.541C1076.7 278.213 1077.2 278.691 1077.82 278.872Z" fill="#830018"/>
<path d="M513.421 261.744V260.874C513.421 260.507 513.565 260.214 513.851 259.994L521.951 253.724C522.145 253.572 522.376 253.475 522.62 253.443C522.864 253.411 523.112 253.445 523.338 253.543C523.564 253.64 523.76 253.796 523.905 253.995C524.05 254.194 524.138 254.429 524.161 254.674L526.391 278.424C526.407 278.58 526.386 278.739 526.331 278.887C526.275 279.036 526.186 279.172 526.071 279.284L516.001 288.924C515.735 289.177 515.421 289.34 515.061 289.414C506.221 291.194 495.801 286.854 496.011 276.544C496.221 265.974 503.871 263.744 512.591 262.684C513.145 262.61 513.421 262.297 513.421 261.744ZM509.977 279.104C510.288 279.203 510.618 279.229 510.949 279.18C511.281 279.131 511.607 279.007 511.91 278.817C512.212 278.627 512.485 278.374 512.712 278.072C512.939 277.77 513.116 277.425 513.234 277.058C513.471 276.315 513.449 275.523 513.174 274.856C512.898 274.19 512.392 273.703 511.765 273.503C511.455 273.404 511.124 273.378 510.793 273.428C510.461 273.477 510.135 273.6 509.833 273.79C509.53 273.98 509.258 274.233 509.03 274.535C508.803 274.837 508.626 275.182 508.509 275.55C508.272 276.292 508.293 277.084 508.569 277.751C508.844 278.418 509.351 278.904 509.977 279.104Z" fill="#830018"/>
<path d="M750.061 255.404C753.911 252.404 764.131 253.174 761.561 260.434C759.981 264.924 753.131 264.504 750.041 262.214C749.754 262 749.461 261.994 749.161 262.194C740.121 268.374 732.821 256.824 741.091 253.994C743.964 253.007 746.711 253.477 749.331 255.404C749.578 255.59 749.821 255.59 750.061 255.404Z" fill="#830018"/>
<path d="M578.551 277.054C573.485 273.52 568.948 269.404 564.941 264.704C564.668 264.377 564.684 264.067 564.991 263.774L572.801 256.244C573.039 256.016 573.32 255.837 573.627 255.719C573.934 255.6 574.261 255.544 574.59 255.553C574.919 255.563 575.242 255.637 575.541 255.773C575.84 255.909 576.108 256.103 576.331 256.344C588.561 269.564 601.081 277.114 619.651 277.774C620.098 277.787 620.148 277.934 619.801 278.214C615.688 281.547 611.951 285.26 608.591 289.354C608.351 289.647 608.044 289.794 607.671 289.794H554.391C554.018 289.794 553.808 289.98 553.761 290.354C552.511 300.144 543.231 305.264 534.061 304.804C533.989 304.8 533.921 304.774 533.864 304.729C533.808 304.685 533.766 304.624 533.745 304.555C533.725 304.486 533.726 304.413 533.748 304.345C533.771 304.276 533.814 304.217 533.871 304.174C545.491 295.344 543.051 280.954 540.421 268.504C540.334 268.11 540.438 267.78 540.731 267.514L549.841 258.914C550.023 258.741 550.25 258.623 550.496 258.572C550.742 258.521 550.997 258.54 551.233 258.626C551.469 258.712 551.676 258.862 551.831 259.06C551.986 259.257 552.083 259.494 552.111 259.744L554.041 276.884C554.094 277.324 554.341 277.544 554.781 277.544H578.401C578.968 277.544 579.018 277.38 578.551 277.054Z" fill="#830018"/>
<path d="M771.611 276.824L770.481 266.304C770.448 266.01 770.541 265.764 770.761 265.564C772.951 263.534 778.491 257.974 781.321 257.704C781.788 257.664 782.038 257.874 782.071 258.334L783.711 278.114C783.738 278.487 783.618 278.807 783.351 279.074L772.711 289.424C772.458 289.67 772.151 289.794 771.791 289.794H727.701C727.355 289.794 727.134 289.627 727.041 289.294L722.131 271.844C722.067 271.622 722.078 271.386 722.162 271.172C722.247 270.957 722.4 270.777 722.598 270.659C722.796 270.541 723.027 270.493 723.256 270.521C723.484 270.549 723.697 270.652 723.861 270.814C727.841 274.704 730.901 277.784 736.841 277.774C748.254 277.754 759.668 277.64 771.081 277.434C771.481 277.427 771.658 277.224 771.611 276.824Z" fill="#830018"/>
<path d="M998.421 276.924V265.034C998.421 264.134 998.874 263.67 999.781 263.644C1006.41 263.484 1012.85 263.487 1019.11 263.654C1029.47 263.934 1033.06 275.864 1030.84 284.404C1028.5 293.424 1020.13 296.624 1011.75 295.934C1007.65 295.6 1004.16 293.69 1001.28 290.204C1001.06 289.93 1000.77 289.794 1000.42 289.794H983.441C983.074 289.794 982.868 289.977 982.821 290.344C981.611 299.694 972.021 305.714 963.131 304.724C962.518 304.657 962.451 304.434 962.931 304.054C974.501 294.884 972.181 282.234 969.381 268.654C969.301 268.267 969.404 267.937 969.691 267.664L978.741 258.964C978.926 258.785 979.157 258.661 979.409 258.607C979.66 258.552 979.921 258.569 980.164 258.656C980.406 258.742 980.619 258.894 980.78 259.095C980.94 259.296 981.041 259.538 981.071 259.794L983.081 277.054C983.121 277.407 983.318 277.584 983.671 277.584L997.791 277.564C998.211 277.564 998.421 277.35 998.421 276.924ZM1011.4 276.724C1011.31 279.564 1012.42 281.734 1014.74 283.234C1015.03 283.427 1015.32 283.414 1015.6 283.194C1017.06 282.054 1017.83 280.534 1017.92 278.634C1017.93 278.26 1017.8 277.954 1017.52 277.714C1015.95 276.374 1014.11 275.827 1012 276.074C1011.61 276.12 1011.41 276.337 1011.4 276.724Z" fill="#830018"/>
<path d="M833.648 307.835C837.149 308.03 840.133 305.601 840.311 302.408C840.49 299.215 837.796 296.468 834.294 296.273C830.793 296.077 827.81 298.506 827.631 301.699C827.453 304.892 830.146 307.639 833.648 307.835Z" fill="#830018"/>
<path d="M1113.56 303.714C1109.64 312.424 1096.73 306.114 1102.26 298.744C1104.87 295.264 1111.52 295.904 1113.37 300.414C1113.53 300.8 1113.71 300.814 1113.92 300.454C1119.01 291.564 1131.14 299.374 1125.05 305.914C1121.91 309.294 1115.84 308.444 1114.03 303.724C1113.88 303.344 1113.73 303.34 1113.56 303.714Z" fill="#830018"/>
<path d="M586.122 307.973C589.656 308.016 592.553 305.518 592.591 302.392C592.629 299.266 589.795 296.697 586.26 296.654C582.726 296.611 579.83 299.11 579.792 302.235C579.754 305.361 582.588 307.93 586.122 307.973Z" fill="#830018"/>
<path d="M1152.06 307.942C1155.6 308.016 1158.51 305.547 1158.58 302.428C1158.65 299.308 1155.83 296.719 1152.3 296.645C1148.77 296.571 1145.85 299.04 1145.78 302.16C1145.72 305.279 1148.53 307.868 1152.06 307.942Z" fill="#830018"/>
<path d="M860.451 454.354C860.221 464.114 860.371 470.244 853.661 476.244C839.771 488.644 811.481 488.254 800.611 471.624C798.061 467.704 797.401 464.994 797.421 459.984C797.441 453.904 796.261 444.214 798.521 438.674C804.891 423.034 822.441 419.584 837.451 422.214C847.951 424.054 859.211 431.214 860.131 442.974C860.431 446.767 860.538 450.56 860.451 454.354ZM842.945 446.22C842.938 444.956 842.683 443.705 842.193 442.539C841.703 441.373 840.988 440.315 840.089 439.426C839.19 438.536 838.125 437.832 836.954 437.355C835.783 436.877 834.529 436.634 833.265 436.641L824.485 436.687C823.22 436.693 821.969 436.949 820.803 437.439C819.638 437.929 818.58 438.644 817.69 439.543C816.801 440.442 816.097 441.507 815.619 442.678C815.141 443.849 814.899 445.103 814.905 446.367L814.977 460.107C814.984 461.372 815.24 462.622 815.73 463.788C816.22 464.954 816.935 466.012 817.833 466.902C818.732 467.791 819.798 468.495 820.969 468.973C822.14 469.451 823.393 469.693 824.658 469.686L833.437 469.64C834.702 469.634 835.953 469.378 837.119 468.888C838.285 468.398 839.343 467.683 840.232 466.784C841.122 465.885 841.825 464.82 842.303 463.649C842.781 462.478 843.024 461.225 843.017 459.96L842.945 446.22Z" fill="#651012"/>
<path d="M531.161 436.764C531.194 444.524 531.178 452.284 531.111 460.044C531.051 467.254 529.801 472.514 524.391 477.484C513.151 487.804 493.081 486.814 483.001 475.454C478.951 470.884 478.191 465.224 478.431 459.284C478.436 459.152 478.492 459.027 478.587 458.936C478.682 458.845 478.809 458.794 478.941 458.794H493.421C493.768 458.794 493.938 458.967 493.931 459.314C493.841 464.084 493.511 468.274 498.371 470.124C502.401 471.664 510.721 471.624 513.751 467.204C514.691 465.824 515.181 463.607 515.221 460.554C515.314 452.84 515.271 444.924 515.091 436.804C515.089 436.636 515.025 436.476 514.911 436.352C514.796 436.229 514.64 436.151 514.471 436.134L509.531 435.594C509.124 435.547 508.921 435.32 508.921 434.914V422.594C508.921 422.254 509.091 422.08 509.431 422.074L537.801 421.924C538.094 421.917 538.288 422.05 538.381 422.324C538.541 422.77 538.514 423.22 538.301 423.674C538.181 423.934 538.124 424.21 538.131 424.504L538.501 434.104C538.51 434.355 538.426 434.602 538.267 434.799C538.107 434.995 537.881 435.128 537.631 435.174L531.621 436.214C531.314 436.267 531.161 436.45 531.161 436.764Z" fill="#651012"/>
<path d="M572.731 470.544H576.371C576.517 470.544 576.657 470.602 576.76 470.705C576.863 470.808 576.921 470.948 576.921 471.094V483.994C576.921 484.14 576.863 484.279 576.76 484.383C576.657 484.486 576.517 484.544 576.371 484.544H547.471C547.325 484.544 547.185 484.486 547.082 484.383C546.979 484.279 546.921 484.14 546.921 483.994V471.094C546.921 470.948 546.979 470.808 547.082 470.705C547.185 470.602 547.325 470.544 547.471 470.544H552.881C552.987 470.543 553.091 470.511 553.18 470.453C553.269 470.394 553.339 470.311 553.381 470.214L568.441 435.344C568.476 435.264 568.492 435.177 568.487 435.09C568.482 435.003 568.457 434.919 568.413 434.844C568.369 434.768 568.308 434.705 568.235 434.658C568.161 434.611 568.078 434.582 567.991 434.574L562.911 433.994C562.776 433.979 562.651 433.914 562.56 433.813C562.47 433.711 562.42 433.58 562.421 433.444V422.344C562.421 422.198 562.479 422.058 562.582 421.955C562.685 421.852 562.825 421.794 562.971 421.794H597.501C597.607 421.794 597.711 421.826 597.8 421.885C597.889 421.943 597.959 422.026 598.001 422.124L618.581 470.214C618.624 470.311 618.694 470.394 618.782 470.453C618.871 470.511 618.975 470.543 619.081 470.544H623.371C623.517 470.544 623.657 470.602 623.76 470.705C623.863 470.808 623.921 470.948 623.921 471.094V483.874C623.921 484.019 623.863 484.159 623.76 484.263C623.657 484.366 623.517 484.424 623.371 484.424L594.971 484.574C594.825 484.574 594.685 484.516 594.582 484.413C594.479 484.309 594.421 484.17 594.421 484.024V471.084C594.421 470.938 594.479 470.798 594.582 470.695C594.685 470.592 594.825 470.534 594.971 470.534L598.411 470.564C598.49 470.564 598.567 470.548 598.639 470.516C598.711 470.484 598.775 470.437 598.827 470.379C598.879 470.32 598.918 470.251 598.941 470.176C598.964 470.101 598.971 470.022 598.961 469.944L598.601 467.034C598.584 466.9 598.519 466.778 598.417 466.689C598.316 466.601 598.186 466.553 598.051 466.554L574.331 466.534C574.231 466.533 574.132 466.559 574.046 466.61C573.959 466.661 573.889 466.735 573.841 466.824L572.251 469.734C572.206 469.817 572.184 469.911 572.186 470.005C572.188 470.1 572.214 470.193 572.263 470.274C572.311 470.356 572.379 470.423 572.461 470.47C572.544 470.518 572.636 470.543 572.731 470.544ZM579.461 451.724C579.414 451.84 579.396 451.967 579.408 452.092C579.421 452.217 579.465 452.338 579.535 452.442C579.605 452.547 579.699 452.633 579.81 452.692C579.921 452.752 580.045 452.783 580.171 452.784L591.091 452.804C591.217 452.803 591.341 452.772 591.452 452.712C591.563 452.653 591.658 452.567 591.728 452.462C591.798 452.358 591.841 452.237 591.854 452.112C591.867 451.987 591.849 451.86 591.801 451.744L586.371 438.164C586.314 438.021 586.215 437.898 586.088 437.812C585.96 437.726 585.81 437.679 585.656 437.679C585.502 437.679 585.352 437.726 585.224 437.812C585.097 437.898 584.998 438.021 584.941 438.164L579.461 451.724Z" fill="#651012"/>
<path d="M667.631 445.844L673.001 436.074C673.168 435.767 673.091 435.544 672.771 435.404L671.691 434.934C671.344 434.787 671.171 434.527 671.171 434.154V422.544C671.171 422.345 671.25 422.154 671.391 422.013C671.531 421.873 671.722 421.794 671.921 421.794H700.791C701.211 421.794 701.428 422.004 701.441 422.424L701.741 434.084C701.746 434.291 701.676 434.493 701.544 434.653C701.412 434.813 701.226 434.92 701.021 434.954L692.121 436.384C691.819 436.434 691.53 436.547 691.273 436.716C691.017 436.885 690.798 437.105 690.631 437.364C685.818 444.804 681.051 452.257 676.331 459.724C674.251 463.024 674.421 466.004 674.921 469.634C674.953 469.849 675.056 470.047 675.214 470.194C675.373 470.341 675.576 470.43 675.791 470.444L681.381 470.854C681.741 470.874 681.921 471.067 681.921 471.434V483.814C681.921 484.015 681.84 484.209 681.696 484.351C681.551 484.494 681.355 484.574 681.151 484.574L652.661 484.214C652.168 484.207 651.921 483.96 651.921 483.474V471.504C651.921 471.144 652.098 470.95 652.451 470.924L658.191 470.494C658.504 470.474 658.681 470.307 658.721 469.994C659.291 465.894 659.321 462.534 656.811 458.924C651.944 451.924 647.141 444.887 642.401 437.814C642.141 437.42 641.841 437.064 641.501 436.744C641.234 436.49 640.918 436.337 640.551 436.284L632.641 435.264C632.201 435.21 631.978 434.96 631.971 434.514L631.891 422.594C631.891 422.06 632.158 421.794 632.691 421.794H662.071C662.14 421.794 662.209 421.807 662.272 421.834C662.336 421.861 662.394 421.9 662.442 421.949C662.491 421.999 662.529 422.057 662.554 422.122C662.58 422.186 662.592 422.255 662.591 422.324L662.361 434.114C662.354 434.467 662.181 434.677 661.841 434.744L660.421 435.034C659.894 435.14 659.784 435.414 660.091 435.854L667.081 445.874C667.281 446.16 667.464 446.15 667.631 445.844Z" fill="#651012"/>
<path d="M772.561 468.814L773.971 461.474C774.031 461.187 774.208 461.044 774.501 461.044H789.391C789.532 461.044 789.667 461.1 789.766 461.199C789.865 461.298 789.921 461.433 789.921 461.574V483.814C789.921 483.992 789.852 484.164 789.729 484.291C789.605 484.418 789.437 484.491 789.261 484.494C781.008 484.62 772.751 484.6 764.491 484.434C753.381 484.214 741.111 481.444 735.381 470.664C731.511 463.364 732.021 448.264 733.391 440.784C734.991 432.004 744.271 425.174 753.011 422.974C755.925 422.24 760.281 421.854 766.081 421.814C773.861 421.76 781.644 421.764 789.431 421.824C789.758 421.824 789.921 421.987 789.921 422.314V444.174C789.921 444.587 789.714 444.794 789.301 444.794H774.411C774.051 444.794 773.841 444.617 773.781 444.264L772.611 437.644C772.538 437.23 772.291 437.004 771.871 436.964C751.361 434.924 749.411 441.044 750.931 459.564C751.901 471.504 762.581 470.124 771.981 469.334C772.308 469.3 772.501 469.127 772.561 468.814Z" fill="#651012"/>
<path d="M929.021 439.664L916.611 463.294C916.411 463.687 916.088 463.884 915.641 463.884L904.681 463.914C904.248 463.914 903.931 463.72 903.731 463.334L891.821 440.644C891.771 440.549 891.691 440.472 891.593 440.427C891.495 440.382 891.385 440.371 891.281 440.395C891.177 440.419 891.085 440.478 891.019 440.561C890.954 440.644 890.92 440.747 890.921 440.854V469.994C890.921 470.294 891.071 470.45 891.371 470.464L897.051 470.774C897.465 470.794 897.671 471.01 897.671 471.424V483.754C897.671 484.107 897.498 484.284 897.151 484.284L868.291 484.324C867.851 484.324 867.634 484.104 867.641 483.664L867.741 471.944C867.743 471.67 867.849 471.406 868.038 471.206C868.227 471.006 868.485 470.884 868.761 470.864L873.851 470.494C874.238 470.467 874.431 470.257 874.431 469.864L874.411 436.534C874.411 436.2 874.248 436.01 873.921 435.964L868.411 435.164C867.918 435.09 867.671 434.804 867.671 434.304V422.574C867.671 422.054 867.931 421.794 868.451 421.794H897.871C898.285 421.794 898.595 421.974 898.801 422.334L910.181 442.294C910.435 442.74 910.678 442.737 910.911 442.284L921.391 422.254C921.551 421.947 921.808 421.794 922.161 421.794H952.371C952.522 421.794 952.667 421.854 952.774 421.961C952.881 422.067 952.941 422.212 952.941 422.364L952.871 434.424C952.871 434.85 952.661 435.09 952.241 435.144L946.511 435.954C946.118 436.007 945.921 436.234 945.921 436.634V470.014C945.921 470.32 946.078 470.484 946.391 470.504L952.221 470.864C952.668 470.89 952.894 471.127 952.901 471.574C952.941 475.334 952.951 479.03 952.931 482.664C952.931 484.244 952.441 485.254 950.671 484.404C950.418 484.284 950.155 484.224 949.881 484.224L923.581 484.604C923.141 484.61 922.921 484.394 922.921 483.954V471.414C922.921 470.987 923.131 470.764 923.551 470.744L929.301 470.464C929.728 470.444 929.941 470.22 929.941 469.794C929.888 460.94 929.858 452.134 929.851 443.374C929.851 442.194 929.724 440.98 929.471 439.734C929.378 439.294 929.228 439.27 929.021 439.664Z" fill="#651012"/>
<path d="M984.171 461.244V470.014C984.171 470.334 984.331 470.497 984.651 470.504L991.231 470.634C991.691 470.64 991.921 470.877 991.921 471.344V483.574C991.921 484.007 991.701 484.227 991.261 484.234L962.091 484.474C961.791 484.474 961.641 484.324 961.641 484.024L961.691 471.444C961.691 471.057 961.884 470.85 962.271 470.824L967.971 470.474C968.271 470.454 968.421 470.294 968.421 469.994V436.764C968.421 436.397 968.241 436.18 967.881 436.114L962.291 435.054C961.798 434.96 961.548 434.664 961.541 434.164L961.471 422.424C961.471 422.017 961.674 421.814 962.081 421.814C974.448 421.767 986.811 421.774 999.171 421.834C1009.68 421.884 1021.44 425.554 1022.82 437.614C1025.76 463.374 1001.61 460.554 984.831 460.584C984.391 460.59 984.171 460.81 984.171 461.244ZM984.101 435.994L984.161 446.234C984.161 446.417 984.234 446.592 984.363 446.722C984.493 446.851 984.668 446.924 984.851 446.924L1000.16 446.844C1001.05 446.839 1001.94 446.706 1002.76 446.453C1003.59 446.201 1004.33 445.833 1004.96 445.372C1005.59 444.91 1006.09 444.364 1006.43 443.764C1006.76 443.163 1006.94 442.521 1006.93 441.874V440.114C1006.92 438.806 1006.2 437.557 1004.92 436.64C1003.64 435.723 1001.9 435.213 1000.1 435.224L984.791 435.304C984.608 435.304 984.433 435.376 984.303 435.506C984.174 435.635 984.101 435.811 984.101 435.994Z" fill="#651012"/>
<path d="M1055.4 470.474L1059.78 470.724C1060.21 470.75 1060.42 470.977 1060.42 471.404V483.584C1060.42 484.104 1060.16 484.367 1059.63 484.374L1030.2 484.604C1030.13 484.605 1030.06 484.592 1030 484.566C1029.93 484.54 1029.88 484.501 1029.83 484.452C1029.78 484.403 1029.74 484.344 1029.71 484.279C1029.68 484.214 1029.67 484.144 1029.67 484.074V471.924C1029.67 471.558 1029.82 471.207 1030.08 470.948C1030.33 470.689 1030.69 470.544 1031.05 470.544H1035.62C1036.02 470.544 1036.3 470.36 1036.47 469.994L1051.5 435.384C1051.72 434.877 1051.56 434.594 1051.01 434.534L1045.71 433.934C1045.35 433.894 1045.17 433.69 1045.17 433.324L1045.18 422.444C1045.18 422.01 1045.4 421.794 1045.83 421.794H1080C1080.25 421.793 1080.5 421.867 1080.71 422.006C1080.92 422.145 1081.08 422.342 1081.18 422.574L1101.59 469.974C1101.75 470.347 1102.04 470.537 1102.45 470.544L1107.27 470.554C1107.7 470.554 1107.92 470.77 1107.92 471.204V483.924C1107.92 484.025 1107.88 484.123 1107.81 484.196C1107.74 484.269 1107.64 484.311 1107.54 484.314L1077.9 484.504C1077.41 484.504 1077.17 484.26 1077.17 483.774V471.074C1077.17 470.72 1077.35 470.544 1077.7 470.544H1081.69C1081.79 470.544 1081.88 470.525 1081.97 470.486C1082.05 470.448 1082.13 470.392 1082.19 470.321C1082.26 470.251 1082.31 470.167 1082.34 470.076C1082.37 469.986 1082.38 469.889 1082.37 469.794C1082.14 467.574 1080.9 466.47 1078.67 466.484C1071.66 466.524 1064.65 466.547 1057.64 466.554C1057.21 466.554 1056.88 466.747 1056.67 467.134L1055.12 469.964C1054.95 470.284 1055.04 470.454 1055.4 470.474ZM1062.62 452.234C1062.6 452.28 1062.59 452.331 1062.6 452.381C1062.6 452.432 1062.62 452.48 1062.65 452.523C1062.67 452.565 1062.71 452.6 1062.76 452.625C1062.8 452.649 1062.85 452.663 1062.9 452.664L1074.79 452.914C1074.84 452.914 1074.89 452.901 1074.94 452.878C1074.98 452.855 1075.02 452.821 1075.05 452.78C1075.07 452.738 1075.09 452.691 1075.1 452.641C1075.11 452.591 1075.1 452.541 1075.08 452.494L1069.43 438.384C1069.41 438.327 1069.37 438.279 1069.32 438.245C1069.27 438.21 1069.21 438.192 1069.15 438.191C1069.09 438.189 1069.03 438.206 1068.98 438.239C1068.93 438.271 1068.89 438.318 1068.86 438.374L1062.62 452.234Z" fill="#651012"/>
<path d="M1167.42 465.314V436.544C1167.42 436.164 1167.23 435.944 1166.85 435.884L1161.38 435.054C1161.12 435.011 1160.87 434.875 1160.7 434.672C1160.53 434.469 1160.43 434.21 1160.43 433.944L1160.42 422.824C1160.42 422.55 1160.53 422.288 1160.72 422.095C1160.92 421.902 1161.18 421.794 1161.45 421.794H1190.04C1190.46 421.794 1190.67 422.004 1190.67 422.424V434.014C1190.67 434.38 1190.49 434.604 1190.13 434.684L1184.14 435.924C1183.83 435.99 1183.67 436.184 1183.67 436.504V483.784C1183.67 483.977 1183.59 484.163 1183.45 484.3C1183.32 484.437 1183.13 484.514 1182.93 484.514L1158.81 484.474C1158.08 484.467 1157.56 484.13 1157.27 483.464C1152.03 471.494 1146.23 459.404 1140.95 446.564C1140.22 444.79 1139.76 443.407 1139.58 442.414C1139.56 442.334 1139.51 442.294 1139.43 442.294C1139.35 442.294 1139.27 442.294 1139.18 442.294C1139.13 442.294 1139.1 442.32 1139.1 442.374L1139.2 470.004C1139.2 470.297 1139.35 470.45 1139.64 470.464L1145.57 470.764C1146 470.784 1146.22 471.01 1146.21 471.444L1146.07 483.984C1146.07 484.33 1145.9 484.504 1145.55 484.504L1115.95 484.364C1115.6 484.357 1115.42 484.177 1115.42 483.824V471.734C1115.42 471.187 1115.69 470.897 1116.24 470.864L1122.08 470.534C1122.48 470.514 1122.68 470.3 1122.68 469.894L1122.66 436.594C1122.66 436.3 1122.51 436.134 1122.22 436.094L1116.04 435.364C1115.63 435.317 1115.42 435.084 1115.42 434.664V422.544C1115.42 422.21 1115.59 422.044 1115.92 422.044H1148.91C1149.06 422.043 1149.21 422.087 1149.33 422.169C1149.46 422.251 1149.56 422.367 1149.61 422.504C1152.53 429.39 1155.26 436.32 1157.8 443.294C1160.53 450.794 1163.66 458.154 1167.18 465.374C1167.34 465.707 1167.42 465.687 1167.42 465.314Z" fill="#651012"/>
<path d="M1233.99 445.624L1239.82 436.264C1240.06 435.877 1239.97 435.61 1239.54 435.464L1238.55 435.124C1238.13 434.984 1237.92 434.69 1237.92 434.244V422.454C1237.92 422.014 1238.14 421.794 1238.57 421.794H1267.04C1267.46 421.794 1267.67 422 1267.67 422.414V434.324C1267.67 434.664 1267.5 434.864 1267.16 434.924L1258.77 436.414C1258.39 436.48 1258.08 436.664 1257.84 436.964C1251.15 445.334 1246.81 453.674 1241.42 462.184C1241.25 462.444 1241.17 462.73 1241.17 463.044V469.824C1241.17 470.224 1241.37 470.437 1241.77 470.464L1247.31 470.794C1247.72 470.82 1247.92 471.037 1247.92 471.444V483.794C1247.92 484.294 1247.67 484.544 1247.17 484.544H1218.62C1218.3 484.544 1218.14 484.38 1218.14 484.054L1218.19 471.484C1218.19 471.13 1218.37 470.94 1218.72 470.914L1224.6 470.474C1224.99 470.447 1225.17 470.24 1225.16 469.854L1224.89 462.224C1224.88 461.897 1224.79 461.6 1224.6 461.334L1207.87 436.764C1207.68 436.497 1207.43 436.34 1207.1 436.294L1199.19 435.194C1198.84 435.14 1198.67 434.937 1198.67 434.584V422.324C1198.67 422.183 1198.73 422.048 1198.83 421.949C1198.93 421.849 1199.06 421.794 1199.2 421.794H1228.54C1228.96 421.794 1229.17 422.004 1229.17 422.424V433.894C1229.17 434.347 1228.95 434.63 1228.51 434.744L1226.75 435.234C1226.38 435.334 1226.31 435.537 1226.52 435.844L1233.36 445.644C1233.57 445.957 1233.78 445.95 1233.99 445.624Z" fill="#651012"/>
<path d="M623.951 563.794H617.671C617.338 563.794 617.171 563.627 617.171 563.294V555.794C617.171 555.294 617.421 555.044 617.921 555.044H636.401C636.755 555.044 636.931 555.22 636.931 555.574C636.931 558.667 636.905 564.397 636.851 572.764C636.838 574.137 636.605 575.344 636.151 576.384C634.161 580.974 633.201 584.154 628.081 586.184C619.768 589.484 611.821 589.157 604.241 585.204C599.901 582.934 598.561 578.824 598.511 574.234C598.411 564.82 598.385 555.407 598.431 545.994C598.458 540.834 598.865 537.294 599.651 535.374C603.261 526.584 612.671 526.044 620.731 526.664C630.751 527.434 636.501 534.024 635.011 544.514C634.958 544.867 634.755 545.044 634.401 545.044H624.151C623.765 545.044 623.591 544.854 623.631 544.474C623.905 541.807 623.441 539.29 622.241 536.924C622.075 536.597 621.825 536.36 621.491 536.214C616.571 533.994 609.721 535.494 609.701 542.024C609.661 552.697 609.655 563.37 609.681 574.044C609.701 579.694 619.321 579.684 622.361 578.014C625.581 576.244 624.801 567.454 624.591 564.394C624.565 563.994 624.351 563.794 623.951 563.794Z" fill="#830018"/>
<path d="M702.127 527.006L691.568 527.061C691.407 527.062 691.278 527.193 691.279 527.353L691.323 535.773C691.324 535.933 691.455 536.062 691.615 536.061L702.175 536.006C702.335 536.005 702.464 535.875 702.463 535.714L702.419 527.295C702.418 527.134 702.288 527.005 702.127 527.006Z" fill="#830018"/>
<path d="M733.951 583.764C728.431 589.884 718.221 590.774 713.901 582.784C713.748 582.497 713.538 582.257 713.271 582.064C710.971 580.374 711.931 558.224 711.981 554.294C712.001 552.8 712.434 551.727 713.281 551.074C713.541 550.874 713.724 550.62 713.831 550.314C716.911 541.314 729.111 541.654 733.621 548.764C733.67 548.846 733.744 548.909 733.832 548.944C733.921 548.98 734.019 548.984 734.11 548.958C734.202 548.932 734.282 548.876 734.338 548.799C734.394 548.722 734.424 548.629 734.421 548.534V527.294C734.421 526.96 734.588 526.794 734.921 526.794H746.171C746.304 526.794 746.431 526.846 746.525 526.94C746.619 527.034 746.671 527.161 746.671 527.294V587.294C746.671 587.627 746.504 587.794 746.171 587.794H735.621C735.457 587.793 735.294 587.758 735.144 587.69C734.994 587.623 734.86 587.524 734.751 587.4C734.641 587.276 734.559 587.131 734.509 586.973C734.459 586.815 734.443 586.648 734.461 586.484L734.731 584.114C734.838 583.18 734.578 583.064 733.951 583.764ZM734.427 556.603C734.43 555.332 733.927 554.113 733.03 553.213C732.134 552.313 730.916 551.807 729.646 551.804L728.766 551.803C728.137 551.802 727.514 551.925 726.932 552.164C726.351 552.404 725.822 552.756 725.376 553.2C724.931 553.644 724.577 554.171 724.335 554.752C724.094 555.333 723.969 555.956 723.967 556.585L723.935 575.265C723.933 576.535 724.435 577.754 725.332 578.654C726.229 579.554 727.446 580.061 728.716 580.063L729.596 580.064C730.225 580.065 730.849 579.943 731.43 579.703C732.012 579.463 732.54 579.111 732.986 578.667C733.432 578.223 733.785 577.696 734.027 577.115C734.269 576.534 734.394 575.912 734.395 575.283L734.427 556.603Z" fill="#830018"/>
<path d="M1082.53 549.114C1086.04 544.22 1090.93 542.544 1097.2 544.084C1105.13 546.044 1105.37 553.264 1105.12 559.984C1104.77 569.094 1105.09 578.114 1105.21 587.224C1105.22 587.604 1105.03 587.794 1104.64 587.794H1093.22C1092.88 587.794 1092.71 587.624 1092.71 587.284C1092.63 576.85 1092.62 566.44 1092.69 556.054C1092.71 553.627 1091.37 552.217 1088.68 551.824C1082.55 550.934 1082.14 554.894 1082.16 559.814C1082.2 568.974 1082.19 578.127 1082.14 587.274C1082.14 587.62 1081.97 587.794 1081.62 587.794H1070.67C1070.17 587.794 1069.92 587.544 1069.92 587.044V527.114C1069.92 527.031 1069.95 526.953 1070.01 526.894C1070.07 526.836 1070.15 526.804 1070.23 526.804L1081.68 526.794C1082.02 526.794 1082.19 526.964 1082.19 527.304L1082.06 548.964C1082.06 549.504 1082.22 549.554 1082.53 549.114Z" fill="#830018"/>
<path d="M1192.7 578.514L1196.88 578.934C1197.24 578.967 1197.42 579.164 1197.42 579.524V587.044C1197.42 587.45 1197.22 587.667 1196.81 587.694C1187.91 588.374 1178.95 586.104 1178.94 575.334C1178.91 559.327 1178.91 543.334 1178.93 527.354C1178.93 527.208 1178.99 527.068 1179.09 526.965C1179.2 526.862 1179.34 526.804 1179.48 526.804L1190.15 526.794C1190.26 526.794 1190.37 526.815 1190.47 526.857C1190.57 526.899 1190.66 526.96 1190.73 527.037C1190.81 527.115 1190.87 527.206 1190.91 527.307C1190.95 527.407 1190.97 527.515 1190.97 527.624C1190.82 543.884 1190.88 559.857 1191.15 575.544C1191.16 576.364 1191.36 577.13 1191.73 577.844C1191.94 578.244 1192.26 578.467 1192.7 578.514Z" fill="#830018"/>
<path d="M951.155 527.035L940.595 527.072C940.446 527.073 940.326 527.194 940.326 527.343L940.356 535.783C940.356 535.932 940.478 536.053 940.627 536.052L951.187 536.015C951.336 536.015 951.456 535.893 951.456 535.744L951.426 527.304C951.426 527.155 951.304 527.035 951.155 527.035Z" fill="#830018"/>
<path d="M1127.07 527.044L1115.59 527.064C1115.38 527.064 1115.21 527.234 1115.21 527.444L1115.23 535.664C1115.23 535.874 1115.4 536.044 1115.61 536.044L1127.09 536.024C1127.3 536.023 1127.47 535.853 1127.47 535.643L1127.45 527.423C1127.45 527.213 1127.28 527.043 1127.07 527.044Z" fill="#830018"/>
<path d="M520.561 544.324L527.171 544.234C527.551 544.227 527.748 544.41 527.761 544.784L527.971 551.844C527.991 552.31 527.768 552.544 527.301 552.544H520.451C520.311 552.544 520.176 552.599 520.076 552.699C519.977 552.798 519.921 552.933 519.921 553.074L519.931 576.414C519.932 576.906 520.088 577.386 520.377 577.784C520.666 578.183 521.073 578.48 521.541 578.634C523.248 579.194 524.981 579.257 526.741 578.824C526.882 578.79 527.029 578.789 527.171 578.82C527.312 578.851 527.444 578.914 527.557 579.004C527.67 579.094 527.761 579.208 527.822 579.338C527.884 579.468 527.914 579.61 527.911 579.754L527.781 586.804C527.774 587.17 527.591 587.394 527.231 587.474C521.411 588.747 516.041 587.93 511.121 585.024C508.101 583.234 507.811 580.144 507.771 576.984C507.698 569.01 507.661 561.04 507.661 553.074C507.661 552.72 507.484 552.544 507.131 552.544H502.621C502.295 552.544 502.125 552.38 502.111 552.054L501.861 544.954C501.848 544.514 502.065 544.284 502.511 544.264L507.171 544.074C507.505 544.06 507.671 543.884 507.671 543.544V532.794C507.671 532.294 507.921 532.044 508.421 532.044H519.171C519.671 532.044 519.921 532.294 519.921 532.794V543.684C519.921 544.11 520.135 544.324 520.561 544.324Z" fill="#830018"/>
<path d="M823.951 552.544H819.671C819.338 552.544 819.171 552.377 819.171 552.044V544.794C819.171 544.46 819.338 544.294 819.671 544.294H823.921C824.421 544.294 824.671 544.044 824.671 543.544V532.794C824.671 532.294 824.921 532.044 825.421 532.044H835.421C835.754 532.044 835.921 532.21 835.921 532.544V543.674C835.921 544.087 836.131 544.294 836.551 544.294H842.791C843.198 544.294 843.401 544.5 843.401 544.914L843.451 551.934C843.451 552.34 843.251 552.544 842.851 552.544H836.881C836.635 552.544 836.398 552.642 836.224 552.816C836.049 552.99 835.951 553.227 835.951 553.474C835.911 560.834 835.878 568.274 835.851 575.794C835.831 579.454 840.281 579.074 842.841 579.034C843.248 579.027 843.451 579.23 843.451 579.644L843.411 587.274C843.404 587.534 843.271 587.684 843.011 587.724C836.731 588.624 826.291 587.944 825.131 579.934C823.891 571.324 824.851 561.884 824.571 553.144C824.565 552.744 824.358 552.544 823.951 552.544Z" fill="#830018"/>
<path d="M535.991 550.584C537.564 547.27 539.868 545.247 542.901 544.514C549.561 542.904 560.291 542.354 564.341 548.974C565.861 551.464 567.241 551.644 567.281 555.474C567.361 565.207 567.321 572.397 567.161 577.044C566.691 590.774 540.121 591.754 535.981 581.904C535.854 581.604 535.658 581.367 535.391 581.194C534.418 580.574 533.928 579.587 533.921 578.234C533.848 566.1 533.854 557.867 533.941 553.534C533.961 552.62 534.421 551.884 535.321 551.324C535.621 551.144 535.844 550.897 535.991 550.584ZM555.197 555.639C555.198 555.14 555.102 554.646 554.912 554.184C554.723 553.722 554.445 553.303 554.093 552.949C553.741 552.594 553.324 552.313 552.863 552.12C552.403 551.928 551.909 551.828 551.41 551.826L550.01 551.821C549.511 551.819 549.016 551.916 548.555 552.105C548.093 552.295 547.673 552.573 547.319 552.925C546.965 553.276 546.684 553.694 546.491 554.155C546.298 554.615 546.198 555.109 546.197 555.608L546.126 575.988C546.124 576.487 546.22 576.981 546.41 577.443C546.599 577.905 546.878 578.325 547.229 578.679C547.581 579.033 547.999 579.314 548.459 579.507C548.92 579.699 549.413 579.799 549.912 579.801L551.312 579.806C551.811 579.808 552.306 579.711 552.768 579.522C553.229 579.332 553.649 579.054 554.003 578.702C554.357 578.351 554.639 577.933 554.831 577.472C555.024 577.012 555.124 576.518 555.126 576.019L555.197 555.639Z" fill="#830018"/>
<path d="M768.231 569.544C769.941 571.264 766.401 578.324 772.321 579.894C776.361 580.974 778.914 579.664 779.981 575.964C780.074 575.624 780.298 575.457 780.651 575.464L790.611 575.774C791.071 575.787 791.271 576.024 791.211 576.484C789.001 593.744 756.971 591.514 756.841 575.874C756.794 569.84 756.841 563.817 756.981 557.804C757.161 549.674 763.211 544.344 770.981 543.634C778.171 542.984 786.431 544.454 789.381 551.634C791.231 556.104 790.221 562.594 790.201 567.754C790.201 568.6 789.778 569.024 788.931 569.024L768.421 569.084C767.994 569.084 767.931 569.237 768.231 569.544ZM769.461 562.094H778.821C779.039 562.094 779.247 562.007 779.401 561.853C779.555 561.7 779.641 561.491 779.641 561.274V556.964C779.641 555.587 779.159 554.267 778.3 553.294C777.441 552.32 776.276 551.774 775.061 551.774H773.221C772.006 551.774 770.842 552.32 769.983 553.294C769.124 554.267 768.641 555.587 768.641 556.964V561.274C768.641 561.491 768.727 561.7 768.881 561.853C769.035 562.007 769.244 562.094 769.461 562.094Z" fill="#830018"/>
<path d="M873.561 584.814C872.661 585.584 871.891 586.724 870.791 587.154C863.131 590.144 851.911 587.674 851.261 577.764C850.991 573.774 851.331 570.524 854.141 567.474C859.821 561.324 866.111 561.744 873.871 561.504C874.204 561.49 874.381 561.317 874.401 560.984C874.661 555.594 875.121 551.714 868.221 551.764C865.361 551.774 863.971 553.184 864.021 555.964C864.028 556.35 863.838 556.544 863.451 556.544H852.651C852.525 556.544 852.401 556.513 852.29 556.453C852.179 556.394 852.085 556.308 852.015 556.202C851.946 556.097 851.904 555.977 851.892 555.851C851.881 555.726 851.901 555.599 851.951 555.484C853.931 550.894 856.251 545.864 861.631 544.574C872.961 541.844 886.261 544.184 886.211 558.664C886.178 568.21 886.164 577.74 886.171 587.254C886.171 587.614 885.991 587.794 885.631 587.794H875.051C874.631 587.794 874.421 587.584 874.421 587.164V585.214C874.421 584.46 874.134 584.327 873.561 584.814ZM872.611 578.974C874.911 576.854 874.581 572.794 874.411 569.724C874.398 569.397 874.228 569.22 873.901 569.194C868.301 568.624 862.361 569.504 862.901 576.144C863.341 581.564 869.551 581.794 872.611 578.974Z" fill="#830018"/>
<path d="M1036.69 569.704C1036.61 573.364 1035.98 578.104 1039.66 579.554C1043.31 580.987 1046.25 580.094 1048.47 576.874C1049.99 574.674 1056.44 575.534 1058.86 575.824C1059.16 575.864 1059.32 576.034 1059.35 576.334C1059.79 580.904 1057.97 583.804 1053.8 585.824C1044.54 590.314 1026.65 589.934 1026.11 575.844C1025.72 565.524 1022.83 548.794 1034.72 544.684C1043.35 541.704 1056.82 543.654 1059.2 554.534C1059.65 556.62 1059.67 561.274 1059.25 568.494C1059.23 568.86 1059.04 569.044 1058.67 569.044H1037.37C1036.93 569.044 1036.7 569.264 1036.69 569.704ZM1047.17 562.004L1047.94 562.044C1048.21 562.064 1048.38 561.944 1048.45 561.684C1049.18 559.104 1048.8 556.787 1047.3 554.734C1045.7 551.704 1042.43 551.044 1039.45 552.114C1036.47 553.184 1036.44 558.964 1036.75 561.474C1036.8 561.827 1037 562.004 1037.35 562.004H1047.17Z" fill="#830018"/>
<path d="M1149.08 554.284C1147.2 554.674 1147.91 573.394 1148.1 576.424C1148.12 576.777 1148.25 577.08 1148.49 577.334C1151.2 580.22 1154.38 580.83 1158.03 579.164C1158.38 579.004 1158.65 578.76 1158.84 578.434C1159.61 577.154 1159.87 575.76 1159.63 574.254C1159.54 573.74 1159.76 573.487 1160.29 573.494L1170.33 573.674C1170.75 573.68 1170.97 573.897 1170.99 574.324C1171.24 580.394 1169.54 584.584 1163.71 586.654C1155.78 589.48 1148.3 588.94 1141.28 585.034C1137.88 583.144 1137.1 580.344 1137.05 576.724C1136.96 569.534 1135.73 557.224 1137.97 551.634C1140.91 544.274 1150.29 542.884 1157.52 543.694C1166.38 544.684 1171.14 549.324 1170.96 558.564C1170.95 559.384 1170.53 559.794 1169.71 559.794H1160.37C1159.91 559.794 1159.68 559.564 1159.67 559.104C1159.63 555.904 1159.95 552.654 1155.89 551.804C1153.34 551.27 1151.31 551.944 1149.82 553.824C1149.63 554.064 1149.39 554.217 1149.08 554.284Z" fill="#830018"/>
<path d="M1214.53 569.694C1215 575.004 1213.53 580.574 1221.43 579.994C1225.88 579.664 1225.03 575.804 1226.98 575.594C1228.62 575.414 1231.89 575.427 1236.8 575.634C1237.15 575.647 1237.34 575.824 1237.37 576.164C1237.81 580.614 1236.19 583.574 1232.13 585.634C1222.96 590.274 1204.44 590.164 1204.04 575.854C1203.79 566.887 1203.77 560.62 1203.98 557.054C1204.7 544.614 1216.01 542.144 1226.33 544.124C1238.81 546.514 1237.79 558.974 1237.35 568.444C1237.33 568.844 1237.12 569.044 1236.72 569.044H1215.13C1214.7 569.044 1214.5 569.26 1214.53 569.694ZM1215.29 562.044L1225.01 562.084C1225.09 562.084 1225.17 562.068 1225.25 562.036C1225.32 562.005 1225.39 561.96 1225.45 561.902C1225.51 561.844 1225.55 561.776 1225.58 561.701C1225.62 561.626 1225.63 561.545 1225.63 561.464L1225.65 556.994C1225.65 556.312 1225.54 555.636 1225.31 555.006C1225.08 554.375 1224.75 553.801 1224.32 553.317C1223.9 552.833 1223.39 552.449 1222.84 552.186C1222.28 551.923 1221.68 551.786 1221.08 551.784H1219.3C1218.08 551.779 1216.91 552.321 1216.05 553.29C1215.19 554.26 1214.7 555.577 1214.69 556.954L1214.67 561.424C1214.67 561.588 1214.74 561.746 1214.85 561.862C1214.97 561.978 1215.13 562.044 1215.29 562.044Z" fill="#830018"/>
<path d="M702.141 544.274H691.681C691.532 544.274 691.411 544.395 691.411 544.544V587.524C691.411 587.673 691.532 587.794 691.681 587.794H702.141C702.29 587.794 702.411 587.673 702.411 587.524V544.544C702.411 544.395 702.29 544.274 702.141 544.274Z" fill="#830018"/>
<path d="M913.651 557.084C914.731 553.744 917.051 551.544 918.341 548.614C918.901 547.334 919.455 546.05 920.001 544.764C920.128 544.477 920.351 544.33 920.671 544.324L932.121 544.174C932.212 544.173 932.302 544.196 932.381 544.243C932.459 544.289 932.524 544.356 932.567 544.437C932.61 544.517 932.631 544.608 932.626 544.699C932.622 544.79 932.592 544.878 932.541 544.954L918.431 565.604C918.211 565.93 918.221 566.247 918.461 566.554C922.581 571.774 926.358 577.194 929.791 582.814C930.761 584.404 932.481 585.234 933.451 587.004C933.631 587.33 933.535 587.514 933.161 587.554C931.001 587.764 921.571 588.714 920.321 586.554C918.201 582.907 915.938 579.337 913.531 575.844C913.448 575.723 913.332 575.627 913.198 575.569C913.063 575.51 912.915 575.49 912.769 575.51C912.624 575.531 912.487 575.592 912.374 575.686C912.262 575.78 912.177 575.904 912.131 576.044C910.651 580.35 908.315 584.114 905.121 587.334C904.861 587.6 904.548 587.734 904.181 587.734L894.231 587.824C893.605 587.83 893.468 587.57 893.821 587.044L907.191 567.274C907.411 566.954 907.428 566.624 907.241 566.284C905.701 563.397 904.125 560.537 902.511 557.704C900.341 553.904 896.491 549.834 894.691 544.674C894.605 544.42 894.691 544.294 894.951 544.294H905.441C905.801 544.294 906.085 544.44 906.291 544.734C909.025 548.574 911.238 552.697 912.931 557.104C912.959 557.178 913.009 557.242 913.075 557.287C913.141 557.332 913.219 557.354 913.298 557.352C913.378 557.35 913.455 557.323 913.518 557.275C913.581 557.227 913.628 557.16 913.651 557.084Z" fill="#830018"/>
<path d="M951.151 544.274H940.691C940.542 544.274 940.421 544.395 940.421 544.544V587.524C940.421 587.673 940.542 587.794 940.691 587.794H951.151C951.3 587.794 951.421 587.673 951.421 587.524V544.544C951.421 544.395 951.3 544.274 951.151 544.274Z" fill="#830018"/>
<path d="M668.061 584.234C666.051 585.334 664.311 587.254 662.251 587.834C655.691 589.674 646.801 586.484 646.801 578.354C646.808 567.154 646.871 555.954 646.991 544.754C646.998 544.447 647.151 544.294 647.451 544.294H657.421C657.761 544.294 657.931 544.464 657.931 544.804C657.911 554.05 657.911 563.297 657.931 572.544C657.941 575.114 657.451 577.374 659.681 579.044C662.451 581.104 669.011 580.994 669.001 576.104C668.974 565.684 668.938 555.26 668.891 544.834C668.884 544.474 669.061 544.294 669.421 544.294H679.681C680.021 544.294 680.191 544.464 680.191 544.804L680.121 587.074C680.121 587.554 679.878 587.794 679.391 587.794H670.141C669.441 587.794 669.058 587.447 668.991 586.754L668.791 584.624C668.744 584.124 668.501 583.994 668.061 584.234Z" fill="#830018"/>
<path d="M1000.46 571.044C1001.85 571.81 1002.33 570.907 1001.92 568.334L1007.35 544.784C1007.42 544.457 1007.63 544.294 1007.96 544.294H1018.9C1019.23 544.294 1019.37 544.457 1019.32 544.784C1018.71 548.754 1016.32 552.014 1015.32 555.174C1013.26 561.7 1011.31 568.257 1009.48 574.844C1009.4 575.137 1009.21 575.287 1008.9 575.294C1008.81 575.294 1008.71 575.294 1008.6 575.294C1008.33 575.294 1008.15 575.424 1008.08 575.684L1004.78 587.134C1004.65 587.574 1004.36 587.794 1003.9 587.794H996.441C996.048 587.794 995.778 587.614 995.631 587.254C992.871 580.667 990.418 573.977 988.271 567.184C986.181 560.574 982.521 552.554 980.891 544.684C980.838 544.424 980.944 544.294 981.211 544.294H991.191C991.565 544.294 991.778 544.477 991.831 544.844C991.971 545.714 991.951 549.054 993.241 549.344C993.521 549.404 993.695 549.574 993.761 549.854L999.271 573.814C999.391 574.34 999.525 574.344 999.671 573.824L1000.46 571.044Z" fill="#830018"/>
<path d="M1127.16 544.294H1115.68C1115.54 544.294 1115.42 544.41 1115.42 544.554V587.534C1115.42 587.677 1115.54 587.794 1115.68 587.794H1127.16C1127.3 587.794 1127.42 587.677 1127.42 587.534V544.554C1127.42 544.41 1127.3 544.294 1127.16 544.294Z" fill="#830018"/>
</svg>
